<?xml version="1.0" encoding="iso-8859-1"?>
<!-- Generator: Adobe Illustrator 18.0.0, SVG Export Plug-In . SVG Version: 6.00 Build 0)  -->
<!DOCTYPE svg PUBLIC "-//W3C//DTD SVG 1.1//EN" "http://www.w3.org/Graphics/SVG/1.1/DTD/svg11.dtd">
<svg version="1.1" id="Capa_1" xmlns="http://www.w3.org/2000/svg" xmlns:xlink="http://www.w3.org/1999/xlink" x="0px" y="0px"
	 viewBox="0 0 488.595 488.595" style="enable-background:new 0 0 488.595 488.595;" xml:space="preserve">
<g>
	<path d="M486.735,415.809L373.746,227.968c-10.45-17.123-25.699-26.976-41.838-27.031c-0.046,0-0.089,0-0.136,0
		c-0.501,0-1.001,0.01-1.5,0.028c-24.821-41.851-70.029-67.722-118.795-67.722c-76.119,0-138.047,61.928-138.047,138.047
		c0,34.752,12.73,67.494,35.991,92.967L81.805,409.51H13c-7.18,0-13,5.82-13,13s5.82,13,13,13l462.595,0
		c4.686,0,9.01-2.522,11.316-6.601C489.217,424.83,489.15,419.825,486.735,415.809z M99.43,271.291
		c0-61.783,50.264-112.047,112.047-112.047c38.015,0,73.375,19.366,93.968,50.995c-5.831,4.401-11.115,10.273-15.558,17.442
		l-54.318,87.653l-5.962-9.957c-0.019-0.031-0.038-0.063-0.057-0.093c-10.448-17.12-25.702-26.977-41.85-27.044
		c-0.057,0-0.111,0-0.167,0c-16.086,0-31.355,9.722-41.908,26.694c-0.019,0.031-0.038,0.062-0.057,0.093l-21.9,35.886
		C107.957,321.182,99.43,296.91,99.43,271.291z M167.732,318.618c5.697-9.142,12.909-14.378,19.801-14.378c0.019,0,0.038,0,0.057,0
		c6.911,0.029,14.104,5.33,19.74,14.546l54.326,90.724H112.263L167.732,318.618z M291.961,409.51L250.6,340.437l61.387-99.061
		c5.701-9.2,12.912-14.452,19.832-14.439c6.902,0.023,14.095,5.336,19.69,14.503L452.604,409.51L291.961,409.51z"/>
	<path d="M214.324,126.442c7.18,0,13-5.82,13-13V66.084c0-7.18-5.82-13-13-13c-7.18,0-13,5.82-13,13v47.358
		C201.324,120.622,207.144,126.442,214.324,126.442z"/>
	<path d="M13.982,293.493h40.163c7.18,0,13-5.82,13-13c0-7.18-5.82-13-13-13H13.982c-7.18,0-13,5.82-13,13
		C0.982,287.673,6.802,293.493,13.982,293.493z"/>
	<path d="M86.832,171.412c2.539,2.538,5.865,3.807,9.192,3.807c3.327,0,6.655-1.27,9.193-3.808
		c5.077-5.077,5.076-13.308-0.001-18.385l-33.488-33.484c-5.077-5.076-13.309-5.076-18.385,0.001
		c-5.077,5.077-5.076,13.308,0.001,18.385L86.832,171.412z"/>
	<path d="M329.652,178.158c3.327,0,6.655-1.27,9.193-3.808l33.484-33.488c5.077-5.077,5.076-13.308-0.001-18.385
		c-5.077-5.076-13.309-5.076-18.385,0.001l-33.484,33.488c-5.077,5.077-5.076,13.308,0.001,18.385
		C322.999,176.889,326.325,178.158,329.652,178.158z"/>
</g>
<g>
</g>
<g>
</g>
<g>
</g>
<g>
</g>
<g>
</g>
<g>
</g>
<g>
</g>
<g>
</g>
<g>
</g>
<g>
</g>
<g>
</g>
<g>
</g>
<g>
</g>
<g>
</g>
<g>
</g>
</svg>
